<?xml version="1.0" encoding="UTF-8"?>
<svg id="Layer_1" data-name="Layer 1" xmlns="http://www.w3.org/2000/svg" viewBox="0 0 1500 1000">
  <defs>
    <style>
      .cls-1 {
        fill: #083149;
      }
    </style>
  </defs>
  <path class="cls-1" d="M999.25,297.01c0-66.58-25.93-129.17-73-176.24-47.08-47.08-109.67-73-176.24-73s-129.17,25.93-176.24,73c-47.08,47.08-73,109.67-73,176.24v119.92c0,52.45,16.1,102.41,45.94,144.28,13.77,19.58,32.28,38.8,49.88,52.19,43.64,34.22,97.1,52.77,153.42,52.77,59.19,0,115.22-20.51,160.01-58.14,19.9-16.36,39.93-38.92,52.34-60.27l-.09-.05c24.08-38.93,36.98-83.86,36.98-130.78v-119.92Zm-82.38,286.79c-3.96,3.95-8.03,7.74-12.21,11.38-11.45,9.76-22.57,17.17-31.3,20.79-13.75,5.71-26.59,5.89-38.18,.55-7.44-3.43-14.29-8.97-19.79-16-23.85-30.49-15.45-76.59-8.69-113.64l.62-3.42c6.34-34.94,12.37-63.68,18.98-90.45,1.25-5.04,2.8-11.32,1.11-17.72-1.85-7.03-7.3-11.97-14.58-13.2-7.93-1.35-15.89,1.99-20.3,8.51-3.83,5.67-5.14,12.11-6.29,17.79-.32,1.56-.61,3.03-.95,4.45-1.3,5.42-2.82,10.96-4.29,16.31-.56,2.02-1.11,4.04-1.66,6.06-1.31-4.12-2.84-8.11-4.6-11.96-1.05-2.29-2.17-4.52-3.25-6.68-.87-1.74-1.7-3.39-2.49-5.07-1.57-3.32-2.6-5.92-3.33-8.43-.86-2.93-1.43-5.98-1.69-9.07-1.11-12.81,3.41-26.22,12.39-36.79,9.12-10.74,22.03-17.48,35.42-18.5,17.15-1.3,35.21,6.96,46,21.06,12.25,16,10.63,36.86,7.92,56.85-2.41,17.8-5.87,35.73-9.2,53.07-2.85,14.8-5.8,30.11-8.17,45.6l-2.55,16.66,13.22-10.45c42.73-33.78,103.47-66.83,126.9-79.13-1.37,60.99-25.77,118.13-69.05,161.42Zm69.11-165.92s0-.03,0-.04h0s0,.03,0,.04ZM764.25,61.46c23.87,1.41,47.06,6.36,68.97,14.61,2.31,42.56,18.48,81.35,46.79,112.2,26.3,28.66,60.86,48.22,100.27,56.85,3.76,16.84,5.69,34.22,5.69,51.89v14.9c-59.26-5.47-114.15-32.22-155.23-75.83-42.88-45.52-66.5-105.05-66.5-167.63v-6.98Zm212.29,169.13c-72.25-18.51-123.03-76.54-129.61-148.86,25.72,11.59,49.39,27.87,69.93,48.41,28.44,28.44,48.72,62.88,59.67,100.45ZM750.98,61.04v7.41c0,65.97,24.9,128.73,70.11,176.72,43.59,46.27,101.93,74.55,164.89,80.06v82.37c-.62,.19-1.24,.42-1.84,.73-17.7,9.16-74.73,39.51-119.98,72.6,1.71-9.71,3.56-19.32,5.37-28.73,3.37-17.52,6.86-35.63,9.32-53.79,3.09-22.76,4.81-46.65-10.53-66.69-13.45-17.57-36.04-27.86-57.54-26.23-16.89,1.28-33.12,9.72-44.52,23.13-11.26,13.25-16.91,30.2-15.5,46.52,.34,3.96,1.08,7.88,2.18,11.65,.92,3.16,2.22,6.45,4.07,10.37,.86,1.82,1.76,3.61,2.63,5.35,1.08,2.15,2.09,4.17,3.04,6.23,5.02,11.01,7.98,23.41,8.8,36.84v.02c.21,3.27,2.77,5.9,6.03,6.21h0c3.25,.31,6.24-1.77,7.08-4.92l7.2-26.91c.66-2.45,1.33-4.9,2-7.35,1.5-5.46,3.05-11.1,4.4-16.74,.39-1.64,.73-3.3,1.05-4.9,.99-4.89,1.93-9.52,4.28-13,1.69-2.5,4.85-3.24,7.08-2.86,2.12,.36,3.46,1.54,3.97,3.5,.82,3.14-.18,7.22-1.16,11.17-6.68,27.04-12.77,56.04-19.16,91.26l-.62,3.41c-1.66,9.13-3.42,18.77-4.8,28.64h-78.16c-1.38-9.86-3.14-19.51-4.8-28.63l-.62-3.41c-6.39-35.24-12.48-64.24-19.16-91.26-.98-3.95-1.98-8.04-1.16-11.17,.51-1.96,1.85-3.14,3.97-3.5,2.22-.38,5.39,.35,7.08,2.86,2.35,3.48,3.29,8.1,4.28,12.99,.33,1.6,.66,3.26,1.05,4.9,1.35,5.64,2.9,11.28,4.4,16.74,.67,2.45,1.35,4.9,2,7.36l7.19,26.92c.84,3.13,3.81,5.2,7.03,4.91h.04c3.23-.3,5.78-2.88,6.03-6.11h0s0-.11,0-.11c.82-13.45,3.78-25.85,8.8-36.85,.95-2.07,1.96-4.1,3.04-6.24,.87-1.73,1.77-3.53,2.63-5.35,1.85-3.93,3.15-7.22,4.07-10.37,1.11-3.77,1.84-7.69,2.18-11.65,1.41-16.32-4.24-33.27-15.5-46.52-11.4-13.42-27.63-21.85-44.52-23.13-21.51-1.63-44.09,8.66-57.54,26.23-15.35,20.05-13.62,43.94-10.53,66.69,2.46,18.16,5.95,36.27,9.32,53.79,1.81,9.41,3.66,19.03,5.37,28.74-45.24-33.09-102.28-63.44-119.98-72.6-.36-.19-.87-.58-1.35-.95v-82.13c63.03-5.44,121.46-33.69,165.11-79.98,45.28-48.01,70.22-110.81,70.22-176.84v-7.41c.22,0,.43,0,.65,0,.33,0,.66,.01,.98,.01Zm-124.82,554.93c-6.54-2.71-14.5-7.68-22.96-14.26-6.96-5.56-13.67-11.52-20.06-17.91-10.34-10.34-19.59-21.48-27.72-33.27-2.09-3.12-4.07-6.27-5.91-9.43l-.19,.11c-22-35.38-34.22-76.03-35.22-118.57,23.78,12.49,83.97,45.32,126.4,78.86l13.22,10.45-2.55-16.66c-2.37-15.49-5.32-30.8-8.17-45.6-3.34-17.34-6.79-35.27-9.2-53.07-2.71-19.99-4.33-40.84,7.92-56.85,10.79-14.1,28.86-22.36,46-21.06,13.38,1.02,26.29,7.76,35.42,18.5,8.98,10.57,13.5,23.98,12.39,36.79-.27,3.09-.84,6.14-1.69,9.07-.73,2.5-1.76,5.1-3.33,8.43-.79,1.67-1.62,3.32-2.49,5.06-1.08,2.16-2.2,4.39-3.26,6.69-1.75,3.85-3.29,7.83-4.59,11.95-.55-2.02-1.1-4.04-1.66-6.06-1.47-5.35-2.99-10.89-4.29-16.31-.34-1.42-.64-2.9-.96-4.46-1.15-5.68-2.46-12.11-6.29-17.78-4.4-6.52-12.37-9.86-20.3-8.51-7.28,1.24-12.73,6.18-14.58,13.2-1.68,6.4-.13,12.68,1.11,17.72,6.61,26.75,12.64,55.49,18.99,90.45l.62,3.42c6.75,37.05,15.15,83.15-8.7,113.63-5.5,7.03-12.34,12.57-19.79,16-11.58,5.34-24.42,5.16-38.18-.55Zm-112.14-318.96c0-17.65,1.93-35,5.68-51.82,39.74-8.69,75.71-29.21,101.83-58.24,27.64-30.73,43.35-69.03,45.6-111,21.91-8.2,45.1-13.12,68.96-14.5v7c0,62.63-23.65,122.2-66.6,167.73-41.15,43.63-96.13,70.35-155.46,75.75v-14.93Zm0,115.88v-.2h.02c0,.06-.01,.14-.02,.2Zm69.12-282.74c20.64-20.64,44.43-36.97,70.28-48.57-3.25,36.43-17.57,69.61-41.76,96.5-22.82,25.37-53.8,43.76-88.22,52.6,10.95-37.6,31.23-72.06,59.7-100.52Zm71.73,502.87c5.18-.76,10.21-2.23,15.03-4.45,9.35-4.31,17.89-11.19,24.68-19.87,18.37-23.48,20.47-53.28,17.68-82.29h74.99c-2.78,29.01-.68,58.81,17.68,82.29,6.8,8.69,15.33,15.56,24.68,19.87,4.93,2.28,10.09,3.76,15.4,4.5-29.55,13-61.76,19.84-95.02,19.84s-65.55-6.86-95.14-19.89Z"/>
  <g>
    <path class="cls-1" d="M177.37,865.86H89.78c-11.08,0-21.35-1.99-30.8-5.97-9.45-3.98-17.62-9.41-24.51-16.3-6.89-6.89-12.33-15.06-16.3-24.51-3.98-9.45-5.97-19.64-5.97-30.58s1.99-21.13,5.97-30.58c3.98-9.45,9.41-17.62,16.3-24.51,6.89-6.89,15.06-12.32,24.51-16.3,9.45-3.98,19.71-5.97,30.8-5.97s21.34,1.99,30.8,5.97c9.45,3.98,17.62,9.41,24.51,16.3,6.89,6.89,12.32,15.06,16.3,24.51,3.98,9.45,5.97,19.64,5.97,30.58,0,6.39-.85,12.75-2.56,19.07-1.71,6.32-4.16,12.22-7.35,17.69-3.2,5.47-7.03,10.37-11.51,14.7-4.48,4.33-9.56,7.71-15.24,10.12v.43h46.67v15.34ZM31.38,788.5c0,8.52,1.49,16.48,4.48,23.87,2.98,7.39,7.06,13.82,12.25,19.29,5.19,5.47,11.33,9.77,18.44,12.89,7.1,3.13,14.85,4.69,23.23,4.69s15.95-1.56,23.12-4.69c7.17-3.12,13.35-7.42,18.54-12.89,5.19-5.47,9.27-11.9,12.25-19.29,2.98-7.39,4.48-15.34,4.48-23.87s-1.46-16.27-4.37-23.66c-2.91-7.39-6.96-13.82-12.15-19.29-5.19-5.47-11.33-9.8-18.43-13-7.11-3.2-14.92-4.8-23.44-4.8s-16.34,1.6-23.44,4.8c-7.11,3.2-13.25,7.53-18.44,13-5.19,5.47-9.24,11.9-12.15,19.29-2.91,7.39-4.37,15.27-4.37,23.66Z"/>
    <path class="cls-1" d="M311.63,808.31c0,8.24-1.03,16.06-3.09,23.44-2.06,7.39-5.33,13.89-9.8,19.5-4.48,5.61-10.34,10.09-17.58,13.43-7.24,3.34-16.06,5.01-26.42,5.01s-19.18-1.67-26.43-5.01-13.11-7.81-17.58-13.43c-4.48-5.61-7.75-12.11-9.8-19.5-2.06-7.39-3.09-15.2-3.09-23.44v-93.35h17.9v90.79c0,6.11,.64,12.01,1.92,17.69,1.28,5.68,3.41,10.73,6.39,15.13,2.99,4.41,6.96,7.92,11.93,10.55,4.97,2.63,11.22,3.94,18.76,3.94s13.78-1.31,18.75-3.94c4.97-2.63,8.95-6.14,11.93-10.55,2.98-4.4,5.12-9.45,6.39-15.13,1.28-5.68,1.92-11.58,1.92-17.69v-90.79h17.9v93.35Z"/>
    <path class="cls-1" d="M348.28,714.97h94.84v16.62h-76.93v47.31h71.82v16.62h-71.82v53.7h80.77v16.62h-98.67v-150.89Z"/>
    <path class="cls-1" d="M479.98,714.97h94.84v16.62h-76.93v47.31h71.82v16.62h-71.82v53.7h80.77v16.62h-98.67v-150.89Z"/>
    <path class="cls-1" d="M611.68,714.97h22.59l87.38,125.31h.43v-125.31h17.9v150.89h-22.59l-87.38-125.31h-.43v125.31h-17.9v-150.89Z"/>
    <path class="cls-1" d="M854.42,741.61c-2.98-4.83-6.96-8.34-11.93-10.55-4.97-2.2-10.16-3.3-15.56-3.3-3.98,0-7.88,.5-11.72,1.49-3.84,.99-7.28,2.49-10.34,4.47-3.06,1.99-5.51,4.62-7.35,7.89-1.85,3.27-2.77,7.11-2.77,11.51,0,3.41,.53,6.43,1.6,9.06,1.07,2.63,2.8,5.01,5.22,7.14,2.41,2.13,5.68,4.12,9.8,5.97,4.12,1.85,9.16,3.7,15.13,5.54,5.82,1.85,11.47,3.84,16.94,5.97,5.47,2.13,10.3,4.83,14.49,8.1,4.19,3.27,7.53,7.35,10.02,12.25,2.48,4.9,3.73,11.05,3.73,18.43s-1.49,14.07-4.48,19.61c-2.98,5.54-6.93,10.12-11.83,13.75s-10.55,6.32-16.94,8.1c-6.39,1.77-13,2.66-19.82,2.66-4.4,0-8.81-.39-13.21-1.17-4.41-.78-8.63-1.99-12.68-3.62-4.05-1.63-7.85-3.76-11.4-6.39-3.55-2.63-6.61-5.86-9.16-9.7l15.34-12.57c3.27,5.54,7.81,9.73,13.64,12.57,5.83,2.84,12.01,4.26,18.54,4.26,3.84,0,7.7-.57,11.61-1.71,3.91-1.13,7.42-2.8,10.55-5.01,3.12-2.2,5.68-4.94,7.67-8.21,1.99-3.27,2.98-7.03,2.98-11.3,0-4.69-.78-8.49-2.34-11.4-1.57-2.91-3.98-5.43-7.25-7.57-3.27-2.13-7.39-4.05-12.36-5.75-4.97-1.7-10.8-3.69-17.48-5.97-5.4-1.7-10.37-3.66-14.92-5.86-4.55-2.2-8.49-4.9-11.83-8.1-3.34-3.2-5.97-7.03-7.89-11.51-1.92-4.48-2.88-9.84-2.88-16.09,0-7.25,1.42-13.57,4.26-18.97,2.84-5.4,6.68-9.91,11.51-13.53,4.83-3.62,10.3-6.36,16.41-8.21,6.11-1.85,12.5-2.77,19.18-2.77,8.53,0,16.3,1.32,23.34,3.94,7.03,2.63,13.32,7.21,18.86,13.75l-14.7,12.79Z"/>
    <path class="cls-1" d="M906.63,714.97h17.9v134.26h69.05v16.62h-86.95v-150.89Z"/>
    <path class="cls-1" d="M1082.67,714.97h16.84l64.15,150.89h-20.89l-15.34-37.08h-75.44l-15.56,37.08h-20.25l66.49-150.89Zm8.1,23.02h-.43l-31.33,74.16h61.59l-29.83-74.16Z"/>
    <path class="cls-1" d="M1192.85,714.97h22.59l87.38,125.31h.43v-125.31h17.9v150.89h-22.59l-87.38-125.31h-.43v125.31h-17.9v-150.89Z"/>
    <path class="cls-1" d="M1355.88,714.97h57.97c4.97,0,10.23,.57,15.77,1.71,5.54,1.14,11.04,2.95,16.52,5.43,5.47,2.49,10.73,5.72,15.77,9.7,5.04,3.98,9.48,8.77,13.32,14.38,3.84,5.61,6.89,12.08,9.16,19.39,2.27,7.32,3.41,15.59,3.41,24.83s-1.14,17.51-3.41,24.83c-2.27,7.32-5.33,13.78-9.16,19.39-3.84,5.61-8.28,10.41-13.32,14.38-5.04,3.98-10.3,7.21-15.77,9.7-5.47,2.49-10.97,4.3-16.52,5.43-5.54,1.14-10.8,1.71-15.77,1.71h-57.97v-150.89Zm17.9,134.26h34.1c8.66,0,16.69-1.14,24.08-3.41,7.39-2.27,13.78-5.79,19.18-10.55,5.4-4.76,9.66-10.83,12.79-18.22,3.12-7.39,4.69-16.27,4.69-26.64s-1.56-19.25-4.69-26.64c-3.13-7.39-7.39-13.46-12.79-18.22-5.4-4.76-11.79-8.27-19.18-10.55-7.39-2.27-15.42-3.41-24.08-3.41h-34.1v117.64Z"/>
  </g>
  <g>
    <path class="cls-1" d="M425.85,928.63c0-13.6,9.66-23.61,22.73-23.61,6.32,0,12.01,2.25,15.85,6.76l-2.91,3.12c-3.53-3.85-7.86-5.5-12.82-5.5-10.46,0-18.33,8.22-18.33,19.23s7.86,19.23,18.33,19.23c4.95,0,9.29-1.66,12.82-5.57l2.91,3.12c-3.84,4.51-9.54,6.83-15.91,6.83-13,0-22.66-10.01-22.66-23.61Z"/>
    <path class="cls-1" d="M479.65,928.63c0-13.53,9.66-23.61,22.79-23.61s22.73,10.01,22.73,23.61-9.72,23.61-22.73,23.61-22.79-10.08-22.79-23.61Zm40.93,0c0-11.07-7.74-19.23-18.14-19.23s-18.27,8.16-18.27,19.23,7.8,19.23,18.27,19.23,18.14-8.16,18.14-19.23Z"/>
    <path class="cls-1" d="M581.88,905.42v46.42h-3.78l-27.86-37.67v37.67h-4.58v-46.42h3.78l27.93,37.67v-37.67h4.52Z"/>
    <path class="cls-1" d="M606.2,905.42h17.65c13.87,0,23.22,9.55,23.22,23.21s-9.35,23.21-23.22,23.21h-17.65v-46.42Zm17.4,42.18c11.52,0,18.95-7.83,18.95-18.97s-7.43-18.97-18.95-18.97h-12.82v37.93h12.82Z"/>
    <path class="cls-1" d="M663.72,928.63c0-13.53,9.66-23.61,22.79-23.61s22.73,10.01,22.73,23.61-9.72,23.61-22.73,23.61-22.79-10.08-22.79-23.61Zm40.93,0c0-11.07-7.74-19.23-18.14-19.23s-18.27,8.16-18.27,19.23,7.8,19.23,18.27,19.23,18.14-8.16,18.14-19.23Z"/>
    <path class="cls-1" d="M774.74,905.42v46.42h-4.4v-37.14l-17.03,31.24h-2.17l-17.03-31.04v36.94h-4.4v-46.42h3.78l18.83,34.42,18.64-34.42h3.78Z"/>
    <path class="cls-1" d="M799.07,905.42h4.58v46.42h-4.58v-46.42Z"/>
    <path class="cls-1" d="M864.2,905.42v46.42h-3.78l-27.86-37.67v37.67h-4.58v-46.42h3.78l27.93,37.67v-37.67h4.52Z"/>
    <path class="cls-1" d="M888.53,905.42h4.58v46.42h-4.58v-46.42Z"/>
    <path class="cls-1" d="M917.07,932.01v-26.59h4.58v26.4c0,11.01,4.83,16.05,13.25,16.05s13.31-5.04,13.31-16.05v-26.4h4.46v26.59c0,13.33-6.69,20.23-17.77,20.23s-17.83-6.9-17.83-20.23Z"/>
    <path class="cls-1" d="M1021.72,905.42v46.42h-4.4v-37.14l-17.03,31.24h-2.17l-17.03-31.04v36.94h-4.4v-46.42h3.78l18.83,34.42,18.64-34.42h3.78Z"/>
    <path class="cls-1" d="M1041.89,946.2l1.8-3.78c3.09,3.25,8.61,5.64,14.3,5.64,8.11,0,11.64-3.65,11.64-8.22,0-12.73-26.69-4.91-26.69-22.08,0-6.83,4.95-12.73,15.98-12.73,4.89,0,9.97,1.52,13.44,4.11l-1.55,3.91c-3.72-2.59-8.05-3.85-11.89-3.85-7.93,0-11.46,3.78-11.46,8.42,0,12.73,26.69,5.04,26.69,21.95,0,6.83-5.08,12.67-16.16,12.67-6.5,0-12.88-2.45-16.1-6.03Z"/>
  </g>
</svg>